<?xml version="1.0" standalone="no"?>
<!DOCTYPE svg PUBLIC "-//W3C//DTD SVG 20010904//EN"
 "http://www.w3.org/TR/2001/REC-SVG-20010904/DTD/svg10.dtd">
<svg version="1.0" xmlns="http://www.w3.org/2000/svg"
 width="16.000000pt" height="16.000000pt" viewBox="0 0 16.000000 16.000000"
 preserveAspectRatio="xMidYMid meet">
<metadata>
Created by potrace 1.11, written by Peter Selinger 2001-2013
</metadata>
<g transform="translate(0.000000,16.000000) scale(0.003125,-0.003125)"
fill="#000000" stroke="none">
<path d="M3063 3826 c-4 -6 -7 -2646 -4 -2712 1 -8 56 -11 184 -10 l182 1 1
600 c1 330 2 604 3 609 2 14 316 2 335 -13 9 -7 16 -10 16 -6 0 4 7 2 15 -5 8
-7 15 -9 15 -4 0 5 4 4 8 -1 4 -6 21 -17 37 -25 66 -33 183 -185 216 -279 6
-17 16 -31 22 -31 6 0 7 -3 4 -6 -3 -4 -1 -16 5 -28 7 -11 13 -23 13 -26 1 -3
18 -41 40 -85 21 -44 39 -86 38 -92 0 -7 3 -13 9 -13 5 0 7 -4 4 -9 -4 -5 -3
-11 1 -13 9 -4 61 -106 65 -128 2 -8 5 -17 8 -20 8 -8 53 -104 56 -119 2 -8 8
-17 14 -21 6 -4 10 -11 9 -16 -1 -5 21 -57 49 -116 29 -58 52 -110 52 -115 0
-6 8 -17 18 -25 14 -13 50 -16 215 -16 181 1 225 6 197 23 -6 4 -8 11 -5 16 4
5 1 9 -4 9 -6 0 -11 6 -11 13 0 8 -32 79 -72 158 -40 79 -72 146 -73 149 0 3
-13 31 -28 64 -15 32 -27 62 -27 67 0 5 -5 9 -11 9 -5 0 -7 5 -4 10 3 6 1 10
-5 10 -6 0 -9 4 -5 9 3 5 1 12 -5 16 -11 7 -54 96 -52 107 1 5 -3 8 -8 8 -6 0
-10 6 -8 13 1 6 -13 41 -32 77 -19 36 -34 67 -35 70 -2 11 -78 155 -84 160 -4
3 -12 19 -20 35 -15 34 -108 164 -131 182 -57 47 -93 72 -121 83 -26 11 -28
15 -14 22 9 5 28 12 43 14 14 3 32 10 39 15 7 6 17 8 23 4 5 -3 10 -2 10 2 0
5 16 15 35 22 19 7 35 17 35 22 0 6 4 7 10 4 9 -6 81 41 88 58 2 4 8 7 13 7
13 0 115 102 122 123 4 9 11 17 17 17 6 0 9 4 5 9 -3 6 0 13 8 18 12 8 68 123
83 173 22 73 32 213 22 307 -5 48 -10 94 -10 101 -1 6 -5 12 -9 12 -4 0 -6 8
-4 18 1 9 -2 23 -8 30 -5 6 -6 12 -3 12 4 0 1 12 -7 28 -53 104 -70 133 -102
167 -19 22 -35 43 -35 47 0 4 -6 8 -14 8 -8 0 -21 8 -28 18 -27 38 -205 128
-273 139 -20 3 -38 9 -40 13 -3 5 -14 6 -25 3 -11 -3 -20 -1 -20 5 0 6 -9 8
-20 5 -11 -3 -26 -1 -33 4 -6 6 -29 9 -49 8 -21 -1 -38 1 -38 4 0 10 -901 7
-907 -3z m822 -307 c6 -4 21 -7 35 -7 14 -1 32 -3 40 -5 8 -2 29 -7 45 -11 47
-12 105 -38 105 -48 0 -5 4 -7 9 -3 5 3 17 -2 25 -11 9 -8 16 -13 16 -9 0 3
15 -11 33 -31 17 -20 40 -45 49 -55 9 -9 13 -20 10 -24 -4 -3 -1 -10 6 -14 8
-4 15 -14 16 -22 2 -8 6 -22 11 -32 4 -10 5 -21 1 -24 -3 -3 -2 -11 3 -17 4
-6 11 -36 14 -66 5 -47 2 -87 -16 -196 -7 -42 -62 -130 -106 -172 -57 -53 -69
-62 -77 -62 -3 0 -19 -9 -35 -21 -16 -11 -29 -17 -29 -13 0 3 -7 1 -15 -6 -8
-7 -15 -9 -15 -6 0 4 -6 4 -12 -1 -13 -7 -30 -12 -58 -17 -9 -1 -22 -6 -30
-11 -8 -5 -119 -11 -247 -13 -193 -4 -233 -2 -234 9 -5 68 -2 885 3 890 11 7
441 5 453 -2z"/>
<path d="M411 3820 c-5 -3 -6 -14 -4 -25 5 -20 12 -130 18 -260 2 -38 5 -77 8
-85 3 -8 10 -91 16 -185 5 -93 13 -208 15 -255 3 -47 8 -116 11 -155 10 -150
17 -251 42 -650 9 -143 19 -261 23 -263 3 -1 5 -35 4 -74 -1 -40 0 -77 4 -82
3 -6 7 -46 9 -91 2 -44 6 -118 9 -165 3 -47 7 -121 10 -165 3 -44 7 -114 10
-155 8 -133 -21 -119 245 -117 l231 2 23 63 c12 34 20 62 18 62 -3 0 0 7 7 15
6 8 9 19 6 24 -4 5 -2 12 2 15 5 3 15 26 22 51 7 25 17 48 22 51 4 3 6 10 2
15 -3 5 -1 15 4 22 6 7 10 14 10 17 -2 10 45 145 52 154 5 5 6 15 3 22 -3 8 0
14 7 14 6 0 8 5 5 10 -4 6 -2 17 4 24 6 7 12 21 14 32 6 36 42 139 49 142 4 2
4 10 1 18 -3 8 0 14 7 14 6 0 9 4 5 10 -3 5 -1 17 4 27 10 18 54 148 56 168 1
6 3 12 4 15 2 3 4 13 7 23 7 30 10 40 32 112 12 39 25 86 30 105 12 49 29 40
34 -17 1 -7 4 -13 8 -13 4 0 13 -26 20 -57 7 -32 16 -62 19 -68 3 -5 6 -16 7
-23 2 -8 6 -21 10 -30 4 -9 8 -24 8 -32 1 -8 7 -24 13 -35 5 -11 16 -38 22
-60 7 -22 15 -47 18 -55 3 -8 7 -21 9 -28 1 -8 6 -21 10 -30 4 -9 8 -21 8 -27
1 -5 10 -28 19 -50 10 -22 21 -52 24 -67 3 -16 8 -28 12 -28 4 0 8 -9 9 -20 4
-43 6 -50 14 -50 4 0 7 -3 6 -7 -2 -7 27 -97 49 -153 4 -8 7 -18 8 -22 2 -5 4
-10 5 -13 1 -3 3 -8 4 -12 4 -18 59 -179 65 -188 3 -5 6 -17 8 -25 1 -8 6 -23
12 -35 5 -11 14 -33 19 -50 l9 -30 241 -3 242 -2 1 22 c1 13 1 27 0 32 -1 5 1
16 5 25 6 15 12 99 17 261 1 41 5 80 8 85 4 6 6 45 5 88 -1 44 2 81 6 83 5 3
8 31 7 62 0 31 4 120 11 197 6 77 11 162 11 189 0 28 3 54 6 59 3 5 7 46 8 91
1 44 3 81 5 81 1 0 3 38 5 85 1 47 4 85 5 85 1 0 3 36 4 80 1 44 4 85 7 90 4
6 7 44 8 85 2 92 7 165 21 340 6 74 11 163 11 198 0 34 3 62 7 62 4 0 7 38 6
85 0 47 2 85 6 85 3 0 6 38 5 85 -1 47 1 85 5 85 5 0 6 66 1 90 -1 3 -74 5
-163 5 l-163 0 -3 -50 c-2 -28 -9 -167 -17 -310 -8 -143 -16 -291 -19 -330 -5
-72 -12 -193 -20 -375 -3 -58 -8 -148 -11 -200 -3 -52 -8 -142 -10 -200 -3
-58 -7 -125 -10 -150 -8 -73 -27 -526 -26 -639 1 -93 -7 -127 -16 -69 -2 12
-8 25 -15 29 -6 4 -8 11 -4 17 3 6 2 13 -2 16 -5 3 -15 27 -22 53 -7 27 -18
57 -24 68 -6 11 -11 23 -12 28 -1 4 -2 8 -4 10 -1 1 -3 9 -5 17 -1 8 -17 53
-35 100 -17 47 -33 92 -35 100 -2 8 -18 53 -35 100 -17 47 -32 93 -34 102 -3
9 -10 26 -16 37 -6 12 -8 21 -4 21 3 0 2 6 -3 13 -5 6 -20 46 -33 87 -14 41
-28 78 -33 81 -5 4 -6 12 -3 18 4 6 2 11 -4 11 -7 0 -10 7 -7 15 4 8 2 17 -2
19 -5 3 -16 34 -26 68 -9 35 -22 72 -28 83 -6 11 -12 23 -13 28 -1 4 -2 8 -4
10 -1 1 -3 9 -5 17 -2 8 -18 56 -35 105 -17 50 -32 96 -32 103 -1 6 -5 12 -10
12 -4 0 -8 8 -8 18 0 16 -12 17 -130 18 l-129 0 -16 -46 c-9 -25 -17 -52 -18
-60 -1 -8 -4 -17 -7 -20 -8 -8 -40 -114 -40 -133 0 -10 -5 -17 -11 -17 -5 0
-7 -4 -4 -10 3 -5 3 -16 -2 -22 -4 -7 -8 -16 -9 -20 -1 -5 -3 -10 -4 -13 -1
-3 -3 -8 -4 -12 -9 -33 -50 -160 -55 -168 -6 -11 -12 -32 -13 -52 -1 -7 -5
-13 -10 -13 -4 0 -7 -3 -6 -7 3 -11 -22 -85 -33 -99 -5 -6 -6 -13 -4 -16 3 -3
-2 -27 -11 -54 -9 -27 -17 -53 -19 -59 -1 -5 -7 -23 -13 -38 -7 -15 -15 -40
-18 -55 -4 -15 -11 -33 -17 -39 -5 -7 -6 -13 -2 -13 4 0 2 -7 -5 -15 -7 -8
-10 -15 -6 -15 3 0 -1 -16 -9 -37 -8 -20 -13 -38 -10 -41 3 -3 1 -10 -4 -16
-5 -6 -17 -38 -26 -71 -9 -33 -19 -67 -22 -75 -4 -8 -5 -21 -4 -27 1 -7 -3
-13 -9 -13 -6 0 -9 -4 -6 -9 3 -5 -1 -23 -10 -40 -8 -17 -13 -35 -10 -40 4 -5
2 -12 -4 -16 -5 -3 -10 -16 -11 -28 0 -21 -1 -21 -9 -2 -5 11 -9 62 -9 113 -1
50 -4 92 -8 92 -5 0 -9 46 -10 103 -2 56 -4 144 -5 195 -1 50 -5 92 -9 92 -3
0 -6 43 -5 96 1 53 -2 98 -6 100 -3 2 -7 41 -7 87 -2 121 -25 510 -31 522 -3
6 -5 51 -4 100 1 50 -2 95 -6 100 -3 6 -6 54 -5 108 0 53 -2 97 -5 97 -3 0 -5
39 -4 88 0 48 -2 92 -5 97 -4 6 -7 51 -9 100 -6 168 -10 226 -17 233 -8 8
-332 10 -344 2z"/>
</g>
</svg>
